<svg xmlns="http://www.w3.org/2000/svg" xmlns:xlink="http://www.w3.org/1999/xlink" width="25" zoomAndPan="magnify" viewBox="0 0 562.5 562.499982" height="25" preserveAspectRatio="xMidYMid meet" version="1.0"><path fill="#e8e6e3" d="M 357.835938 238.515625 L 326.238281 206.921875 L 339.375 199.890625 L 515.09375 24.207031 C 522.125 17.175781 533.503906 17.175781 540.585938 24.207031 C 547.621094 31.238281 547.621094 42.664062 540.585938 49.695312 L 364.871094 225.332031 Z M 35.753906 506.824219 C -0.921875 457.949219 8.941406 388.5625 57.875 351.84375 C 62.371094 348.476562 67.15625 345.449219 72.089844 342.761719 L 317.984375 211.316406 L 327.167969 220.546875 L 88.15625 385.097656 C 51.136719 414.148438 31.40625 459.949219 35.753906 506.824219 Z M 45.472656 512.929688 C 38.730469 467.03125 56.996094 421.035156 93.480469 392.324219 L 326.875 231.53125 Z M 71.160156 520.59375 C 64.664062 520.644531 58.21875 520.15625 51.773438 519.226562 L 333.222656 237.832031 L 172.449219 471.230469 C 147.980469 502.285156 110.671875 520.496094 71.160156 520.59375 Z M 122.050781 551.015625 C 98.898438 550.574219 76.433594 542.8125 57.925781 528.945312 C 104.761719 533.242188 150.570312 513.515625 179.628906 476.550781 L 344.261719 237.585938 L 353.441406 246.816406 L 221.921875 492.617188 C 202.289062 529.335938 163.660156 551.894531 122.050781 551.015625 Z M 130.253906 559.851562 C 172.207031 557.800781 210.003906 533.828125 229.832031 496.816406 L 372.144531 230.703125 L 546.9375 55.996094 C 557.4375 45.496094 557.4375 28.40625 546.886719 17.910156 C 536.339844 7.363281 519.292969 7.363281 508.746094 17.910156 L 334.054688 192.617188 L 67.886719 334.902344 C 9.625 366.101562 -12.304688 438.5625 18.855469 496.816406 C 40.6875 537.585938 84.054688 562.148438 130.253906 559.851562 " fill-opacity="1" fill-rule="nonzero"/></svg>